<svg id="icon_tooltip" xmlns="http://www.w3.org/2000/svg" width="40" height="40" viewBox="0 0 40 40">
  <g id="타원_651" data-name="타원 651" transform="translate(12 12)" fill="none" stroke="#a5a5a5" stroke-width="1">
    <circle cx="8" cy="8" r="8" stroke="none"/>
    <circle cx="8" cy="8" r="7.5" fill="none"/>
  </g>
  <path id="패스_16888" data-name="패스 16888" d="M2.42-.85V-3.26a3.277,3.277,0,0,0,.82-.14,2.453,2.453,0,0,0,.71-.34,1.692,1.692,0,0,0,.5-.53,1.49,1.49,0,0,0,.19-.75A1.618,1.618,0,0,0,4.5-5.7a1.449,1.449,0,0,0-.39-.46,1.908,1.908,0,0,0-.56-.26,2.977,2.977,0,0,0-.66-.08,1.539,1.539,0,0,0-.63.12,1.914,1.914,0,0,0-.49.33,1.875,1.875,0,0,0-.37.47,2.865,2.865,0,0,0-.24.57L.31-5.37a3.126,3.126,0,0,1,.43-.9,2.359,2.359,0,0,1,.61-.61,2.819,2.819,0,0,1,.77-.34,3.616,3.616,0,0,1,.89-.11,3.794,3.794,0,0,1,1.17.17A2.7,2.7,0,0,1,5-6.7a2.085,2.085,0,0,1,.48.7,2.477,2.477,0,0,1,.16.86A2.294,2.294,0,0,1,5.06-3.5a3.269,3.269,0,0,1-1.64.87V-.85ZM2.42.2h1V1.26h-1Z" transform="translate(17 23.035)" fill="#a5a5a5"/>
  <rect id="사각형_6912" data-name="사각형 6912" width="40" height="40" fill="none" opacity="0.461"/>
</svg>
