<svg id="login_logo_apple_black" xmlns="http://www.w3.org/2000/svg" xmlns:xlink="http://www.w3.org/1999/xlink" width="44" height="44" viewBox="0 0 44 44">
  <defs>
    <clipPath id="clip-path">
      <rect id="사각형_6234" data-name="사각형 6234" width="15.331" height="18" fill="#fff"/>
    </clipPath>
  </defs>
  <rect id="사각형_6235" data-name="사각형 6235" width="44" height="44" fill="none"/>
  <g id="그룹_7994" data-name="그룹 7994" transform="translate(14.335 13)" clip-path="url(#clip-path)">
    <path id="패스_16842" data-name="패스 16842" d="M14.8,49.561a5.1,5.1,0,0,0-3.581-1.931c-1.432-.062-2.086.81-3.425.841-1.246.031-1.152-.965-3.737-.685-2.242.249-4.2,2.491-4.048,5.637.156,3.394,2.522,8.1,4.734,8.1,1.557-.031,1.931-.778,3.208-.778,1.588,0,1.962.934,3.208.747,2.149-.311,4.173-3.706,4.173-4.8a4.316,4.316,0,0,1-2.522-3.457A4.182,4.182,0,0,1,14.8,49.561" transform="translate(0.001 -43.519)" fill="#fff" fill-rule="evenodd"/>
    <path id="패스_16843" data-name="패스 16843" d="M85.128,4.36A4.138,4.138,0,0,1,88.771,0c.342,2.086-1.37,4.484-3.644,4.36" transform="translate(-77.77)" fill="#fff" fill-rule="evenodd"/>
  </g>
</svg>
