<svg id="login_logo_twitter" xmlns="http://www.w3.org/2000/svg" width="44" height="44" viewBox="0 0 44 44">
  <rect id="사각형_6247" data-name="사각형 6247" width="44" height="44" fill="none" opacity="0.175"/>
  <g id="Logo_1_" transform="translate(13 14.687)">
    <path id="white_background" d="M17.157,5.139c.011.159.011.317.011.478A10.436,10.436,0,0,1,6.661,16.124v0A10.455,10.455,0,0,1,1,14.465a7.512,7.512,0,0,0,.879.053,7.415,7.415,0,0,0,4.586-1.584,3.7,3.7,0,0,1-3.45-2.565,3.681,3.681,0,0,0,1.667-.064A3.693,3.693,0,0,1,1.72,6.687V6.64A3.67,3.67,0,0,0,3.4,7.1,3.7,3.7,0,0,1,2.253,2.171,10.481,10.481,0,0,0,9.864,6.029a3.7,3.7,0,0,1,6.293-3.368,7.41,7.41,0,0,0,2.345-.9,3.707,3.707,0,0,1-1.623,2.042A7.344,7.344,0,0,0,19,3.226,7.5,7.5,0,0,1,17.157,5.139Z" transform="translate(-1 -1.497)" fill="#1d9bf0"/>
  </g>
</svg>
