<svg id="login_logo_facebook" xmlns="http://www.w3.org/2000/svg" xmlns:xlink="http://www.w3.org/1999/xlink" width="44" height="44" viewBox="0 0 44 44">
  <defs>
    <clipPath id="clip-path">
      <rect id="사각형_6241" data-name="사각형 6241" width="18" height="18" fill="none"/>
    </clipPath>
  </defs>
  <rect id="사각형_6914" data-name="사각형 6914" width="44" height="44" fill="none" opacity="0.209"/>
  <g id="그룹_8005" data-name="그룹 8005" transform="translate(13 13)" clip-path="url(#clip-path)">
    <path id="패스_16849" data-name="패스 16849" d="M18,9A9,9,0,1,0,7.594,17.891V11.6H5.309V9H7.594V7.017a3.176,3.176,0,0,1,3.4-3.5,13.84,13.84,0,0,1,2.015.176V5.906H11.873a1.3,1.3,0,0,0-1.467,1.405V9h2.5l-.4,2.6h-2.1v6.289A9,9,0,0,0,18,9" fill="#1877f2"/>
    <path id="패스_16850" data-name="패스 16850" d="M309.195,208.086l.4-2.6h-2.5V203.8a1.3,1.3,0,0,1,1.467-1.405H309.7v-2.215a13.84,13.84,0,0,0-2.015-.176,3.176,3.176,0,0,0-3.4,3.5v1.983H302v2.6h2.285v6.289a9.095,9.095,0,0,0,2.813,0v-6.289Z" transform="translate(-296.691 -196.484)" fill="#fff"/>
  </g>
</svg>
