<svg id="login_logo_google" xmlns="http://www.w3.org/2000/svg" xmlns:xlink="http://www.w3.org/1999/xlink" width="44" height="44" viewBox="0 0 44 44">
  <defs>
    <clipPath id="clip-path">
      <rect id="사각형_6240" data-name="사각형 6240" width="17.64" height="18" fill="none"/>
    </clipPath>
  </defs>
  <rect id="사각형_6244" data-name="사각형 6244" width="44" height="44" fill="none" opacity="0.62"/>
  <g id="그룹_8012" data-name="그룹 8012" transform="translate(13.18 13)">
    <g id="그룹_8003" data-name="그룹 8003" clip-path="url(#clip-path)">
      <path id="패스_16845" data-name="패스 16845" d="M17.64,9.2a10.284,10.284,0,0,0-.164-1.841H9v3.481h4.844a4.143,4.143,0,0,1-1.8,2.717V15.82h2.908A8.777,8.777,0,0,0,17.64,9.2" transform="translate(0 0)" fill="#3e82f1" fill-rule="evenodd"/>
      <path id="패스_16846" data-name="패스 16846" d="M9,18a8.593,8.593,0,0,0,5.956-2.18l-2.908-2.259A5.43,5.43,0,0,1,3.964,10.71H.957v2.332A9,9,0,0,0,9,18" transform="translate(0 0)" fill="#32a753" fill-rule="evenodd"/>
      <path id="패스_16847" data-name="패스 16847" d="M3.964,10.71a5.326,5.326,0,0,1,0-3.42V4.958H.957a9.014,9.014,0,0,0,0,8.084Z" transform="translate(0 0)" fill="#f9bb00" fill-rule="evenodd"/>
      <path id="패스_16848" data-name="패스 16848" d="M9,3.58a4.86,4.86,0,0,1,3.44,1.346l2.582-2.581A8.648,8.648,0,0,0,9,0,9,9,0,0,0,.957,4.959L3.964,7.29A5.364,5.364,0,0,1,9,3.58" transform="translate(0 0)" fill="#e74235" fill-rule="evenodd"/>
    </g>
  </g>
</svg>
